<?xml version="1.0" encoding="UTF-8" standalone="no"?>
<svg
   xmlns:dc="http://purl.org/dc/elements/1.1/"
   xmlns:cc="http://creativecommons.org/ns#"
   xmlns:rdf="http://www.w3.org/1999/02/22-rdf-syntax-ns#"
   xmlns:svg="http://www.w3.org/2000/svg"
   xmlns="http://www.w3.org/2000/svg"
   id="svg8"
   version="1.1"
   viewBox="0 0 1979.2346 3061.1293"
   height="11569.623"
   width="7480.5718">
  <defs
     id="defs2" />
  <metadata
     id="metadata5">
    <rdf:RDF>
      <cc:Work
         rdf:about="">
        <dc:format>image/svg+xml</dc:format>
        <dc:type
           rdf:resource="http://purl.org/dc/dcmitype/StillImage" />
        <dc:title></dc:title>
      </cc:Work>
    </rdf:RDF>
  </metadata>
  <g
     style="display:inline"
     transform="translate(497.74096,4073.0591)"
     id="layer1">
    <path
       id="path8925"
       d="m 447.98051,-2540.9603 -283.58734,32.6125"
       style="fill:none;fill-opacity:1;stroke:#02007e;stroke-width:16.93333244;stroke-linecap:butt;stroke-linejoin:miter;stroke-miterlimit:4;stroke-dasharray:none;stroke-dashoffset:0;stroke-opacity:1">
      <desc
         id="desc8923">type:door</desc>
    </path>
    <path
       d="M 1122.6984,-2300.8918 H 870.23806 l -78.0145,-240.0684 63.64931,-46.237 m 283.58733,4.0519 56.8079,42.1851 -16.9555,55.3283 m -56.6142,184.7401 16.7554,-54.6506 H 909.21262 l -53.49521,-164.5987 m 282.49299,4.0006 41.1022,30.5086"
       style="opacity:1;fill:none;fill-opacity:0.97767861;stroke:#000000;stroke-width:2.11666656;stroke-linecap:square;stroke-linejoin:miter;stroke-miterlimit:4;stroke-dasharray:none;stroke-dashoffset:0;stroke-opacity:1"
       id="path1008">
      <desc
         id="desc1011">type:obstacle</desc>
    </path>
    <path
       id="path947"
       d="m 872.60765,-1618.969 -20.20902,112.9006 -183.19235,-293.4994 -108.56497,-13.3418 10.63244,-86.479 -293.81928,-221.4841 -338.720402,143.7132 -44.901138,365.1968 293.81928,221.4842 338.7204,-143.7127 9.33172,-75.8993 121.16471,12.7099 142.66911,187.2675"
       style="fill:none;stroke:#000000;stroke-width:2.11666656;stroke-linecap:butt;stroke-linejoin:miter;stroke-miterlimit:4;stroke-dasharray:none;stroke-opacity:1">
      <desc
         id="desc954">type:obstacle</desc>
    </path>
    <g
       id="text63"
       style="font-style:normal;font-variant:normal;font-weight:normal;font-stretch:normal;font-size:45.86139679px;line-height:1.25;font-family:'Linux Libertine Mono O';-inkscape-font-specification:'Linux Libertine Mono O';letter-spacing:0px;word-spacing:0px;fill:#000000;fill-opacity:1;stroke:none;stroke-width:0.26458335"
       transform="matrix(0.99961155,0,0,1.0003886,-655.4011,817.08639)"
       aria-label="Goal">
      <path
         id="path881"
         style="font-style:normal;font-variant:normal;font-weight:normal;font-stretch:normal;font-family:sans-serif;-inkscape-font-specification:sans-serif;stroke-width:0.26458335"
         d="m 935.17959,-3184.4617 v -8.9797 h -7.38978 v -3.7172 h 11.86843 v 14.354 q -2.62001,1.8587 -5.77746,2.8216 -3.15745,0.9405 -6.74037,0.9405 -7.83765,0 -12.27151,-4.5682 -4.41147,-4.5906 -4.41147,-12.7642 0,-8.1959 4.41147,-12.7641 4.43386,-4.5906 12.27151,-4.5906 3.26941,0 6.20293,0.8061 2.95591,0.8062 5.44156,2.3737 v 4.8145 q -2.50804,-2.1273 -5.32959,-3.2022 -2.82156,-1.0749 -5.93422,-1.0749 -6.13575,0 -9.22602,3.4262 -3.06788,3.4262 -3.06788,10.2113 0,6.7628 3.06788,10.189 3.09027,3.4261 9.22602,3.4261 2.39608,0 4.27711,-0.403 1.88104,-0.4255 3.38139,-1.2989 z" />
      <path
         id="path883"
         style="font-style:normal;font-variant:normal;font-weight:normal;font-stretch:normal;font-family:sans-serif;-inkscape-font-specification:sans-serif;stroke-width:0.26458335"
         d="m 957.48327,-3201.8836 q -3.3142,0 -5.24002,2.5976 -1.92582,2.5752 -1.92582,7.0763 0,4.501 1.90343,7.0986 1.92582,2.5753 5.26241,2.5753 3.29181,0 5.21763,-2.5977 1.92582,-2.5976 1.92582,-7.0762 0,-4.4563 -1.92582,-7.0539 -1.92582,-2.62 -5.21763,-2.62 z m 0,-3.4934 q 5.37439,0 8.44226,3.4934 3.06788,3.4933 3.06788,9.6739 0,6.1581 -3.06788,9.6739 -3.06787,3.4933 -8.44226,3.4933 -5.39677,0 -8.46465,-3.4933 -3.04548,-3.5158 -3.04548,-9.6739 0,-6.1806 3.04548,-9.6739 3.06788,-3.4934 8.46465,-3.4934 z" />
      <path
         id="path885"
         style="font-style:normal;font-variant:normal;font-weight:normal;font-stretch:normal;font-family:sans-serif;-inkscape-font-specification:sans-serif;stroke-width:0.26458335"
         d="m 987.19913,-3192.2993 q -4.9937,0 -6.91952,1.1421 -1.92582,1.142 -1.92582,3.8964 0,2.1945 1.43317,3.4933 1.45556,1.2764 3.94121,1.2764 3.42617,0 5.48635,-2.4184 2.08258,-2.4409 2.08258,-6.4717 v -0.9181 z m 8.21833,-1.7019 v 14.3093 h -4.12036 v -3.8068 q -1.41078,2.2841 -3.51575,3.3813 -2.10496,1.0749 -5.15045,1.0749 -3.85164,0 -6.13575,-2.1497 -2.26172,-2.1722 -2.26172,-5.7999 0,-4.2323 2.82155,-6.3821 2.84395,-2.1497 8.46466,-2.1497 h 5.77746 v -0.4031 q 0,-2.844 -1.88104,-4.3891 -1.85864,-1.5675 -5.24002,-1.5675 -2.14975,0 -4.18754,0.515 -2.03779,0.5151 -3.91882,1.5452 v -3.8069 q 2.26172,-0.8733 4.38908,-1.2988 2.12736,-0.4479 4.14275,-0.4479 5.44156,0 8.12876,2.8216 2.68719,2.8215 2.68719,8.5542 z" />
      <path
         id="path887"
         style="font-style:normal;font-variant:normal;font-weight:normal;font-stretch:normal;font-family:sans-serif;-inkscape-font-specification:sans-serif;stroke-width:0.26458335"
         d="m 1003.9269,-3214.5358 h 4.1204 v 34.8439 h -4.1204 z" />
    </g>
    <g
       id="text59"
       style="font-style:normal;font-variant:normal;font-weight:normal;font-stretch:normal;font-size:45.86139679px;line-height:1.25;font-family:'Linux Libertine Mono O';-inkscape-font-specification:'Linux Libertine Mono O';letter-spacing:0px;word-spacing:0px;fill:#000000;fill-opacity:1;stroke:none;stroke-width:0.26458335"
       transform="matrix(0.99961154,0,0,1.0003886,514.868,-844.14405)"
       aria-label="Start">
      <path
         id="path890"
         style="font-style:normal;font-variant:normal;font-weight:normal;font-stretch:normal;font-family:sans-serif;-inkscape-font-specification:sans-serif;stroke-width:0.26458335"
         d="m -248.65694,-2550.2096 v 4.4114 q -2.57522,-1.2316 -4.85934,-1.8362 -2.28411,-0.6046 -4.41147,-0.6046 -3.69489,0 -5.71028,1.4331 -1.993,1.4332 -1.993,4.0756 0,2.2169 1.3212,3.359 1.3436,1.1197 5.06088,1.8138 l 2.73198,0.5599 q 5.06087,0.9629 7.45695,3.4038 2.41848,2.4184 2.41848,6.494 0,4.8593 -3.26942,7.3674 -3.24702,2.508 -9.53953,2.508 -2.37369,0 -5.06088,-0.5374 -2.66479,-0.5375 -5.53113,-1.5899 v -4.6578 q 2.75437,1.5451 5.39677,2.3289 2.64241,0.7837 5.19524,0.7837 3.87403,0 5.979,-1.5227 2.10497,-1.5228 2.10497,-4.3443 0,-2.4633 -1.52274,-3.8516 -1.50035,-1.3884 -4.94891,-2.0826 l -2.75438,-0.5375 q -5.06087,-1.0077 -7.32259,-3.1574 -2.26172,-2.1498 -2.26172,-5.979 0,-4.4339 3.11266,-6.9867 3.13506,-2.5528 8.62141,-2.5528 2.35129,0 4.79215,0.4254 2.44087,0.4255 4.9937,1.2765 z" />
      <path
         id="path892"
         style="font-style:normal;font-variant:normal;font-weight:normal;font-stretch:normal;font-family:sans-serif;-inkscape-font-specification:sans-serif;stroke-width:0.26458335"
         d="m -235.69124,-2550.0753 v 7.1211 h 8.48705 v 3.2022 h -8.48705 v 13.6151 q 0,3.0679 0.82855,3.9412 0.85094,0.8734 3.42617,0.8734 h 4.23233 v 3.4485 h -4.23233 q -4.76977,0 -6.58362,-1.769 -1.81385,-1.7915 -1.81385,-6.4941 v -13.6151 h -3.02309 v -3.2022 h 3.02309 v -7.1211 z" />
      <path
         id="path894"
         style="font-style:normal;font-variant:normal;font-weight:normal;font-stretch:normal;font-family:sans-serif;-inkscape-font-specification:sans-serif;stroke-width:0.26458335"
         d="m -210.36447,-2530.4812 q -4.99369,0 -6.91951,1.1421 -1.92582,1.142 -1.92582,3.8964 0,2.1945 1.43317,3.4933 1.45556,1.2765 3.94121,1.2765 3.42617,0 5.48635,-2.4185 2.08257,-2.4409 2.08257,-6.4717 v -0.9181 z m 8.21833,-1.7019 v 14.3093 h -4.12036 v -3.8068 q -1.41077,2.2841 -3.51574,3.3813 -2.10497,1.0749 -5.15045,1.0749 -3.85164,0 -6.13575,-2.1497 -2.26172,-2.1722 -2.26172,-5.7999 0,-4.2323 2.82155,-6.3821 2.84394,-2.1497 8.46465,-2.1497 h 5.77746 v -0.4031 q 0,-2.8439 -1.88103,-4.3891 -1.85864,-1.5675 -5.24003,-1.5675 -2.14975,0 -4.18753,0.515 -2.03779,0.5151 -3.91883,1.5452 v -3.8069 q 2.26172,-0.8733 4.38908,-1.2988 2.12736,-0.4478 4.14276,-0.4478 5.44156,0 8.12875,2.8215 2.68719,2.8216 2.68719,8.5542 z" />
      <path
         id="path896"
         style="font-style:normal;font-variant:normal;font-weight:normal;font-stretch:normal;font-family:sans-serif;-inkscape-font-specification:sans-serif;stroke-width:0.26458335"
         d="m -179.10347,-2539.1026 q -0.69419,-0.4031 -1.52274,-0.5822 -0.80616,-0.2016 -1.79146,-0.2016 -3.49335,0 -5.37439,2.2842 -1.85864,2.2617 -1.85864,6.5164 v 13.212 h -4.14275 v -25.0804 h 4.14275 v 3.8964 q 1.29881,-2.2841 3.38139,-3.3814 2.08257,-1.1196 5.06087,-1.1196 0.42548,0 0.94052,0.067 0.51505,0.045 1.14206,0.1568 z" />
      <path
         id="path898"
         style="font-style:normal;font-variant:normal;font-weight:normal;font-stretch:normal;font-family:sans-serif;-inkscape-font-specification:sans-serif;stroke-width:0.26458335"
         d="m -170.66121,-2550.0753 v 7.1211 h 8.48704 v 3.2022 h -8.48704 v 13.6151 q 0,3.0679 0.82855,3.9412 0.85094,0.8734 3.42617,0.8734 h 4.23232 v 3.4485 h -4.23232 q -4.76977,0 -6.58362,-1.769 -1.81386,-1.7915 -1.81386,-6.4941 v -13.6151 h -3.02309 v -3.2022 h 3.02309 v -7.1211 z" />
    </g>
    <path
       style="fill:none;fill-opacity:1;stroke:#2aff80;stroke-width:16.93333244;stroke-linecap:butt;stroke-linejoin:miter;stroke-miterlimit:4;stroke-dasharray:none;stroke-opacity:1"
       d="m 696.42221,-2061.4405 173.81585,-239.4513"
       id="path895">
      <desc
         id="desc893">type:door</desc>
    </path>
    <path
       id="path4621"
       d="m 447.98051,-3462.4503 v 139.7248"
       style="fill:none;stroke:#55ddff;stroke-width:16.93333244;stroke-linecap:butt;stroke-linejoin:miter;stroke-miterlimit:4;stroke-dasharray:none;stroke-opacity:1">
      <desc
         id="desc4639">type:door</desc>
    </path>
    <circle
       style="opacity:1;fill:#55ddff;fill-opacity:1;stroke:none;stroke-width:2.11666656;stroke-linecap:square;stroke-linejoin:miter;stroke-miterlimit:4;stroke-dasharray:none;stroke-dashoffset:0;stroke-opacity:1"
       id="circle894"
       cx="651.97632"
       cy="-3756.0579"
       r="18.520834">
      <desc
         id="desc892">type:trigger</desc>
    </circle>
    <circle
       style="opacity:1;fill:#a0892c;fill-opacity:1;stroke:none;stroke-width:2.11666656;stroke-linecap:square;stroke-linejoin:miter;stroke-miterlimit:4;stroke-dasharray:none;stroke-dashoffset:0;stroke-opacity:1"
       id="circle952"
       cx="537.49054"
       cy="-3303.2175"
       r="18.520834">
      <desc
         id="desc950">type:collectible</desc>
    </circle>
    <circle
       r="18.520834"
       cy="-3351.7356"
       cx="303.29324"
       id="circle896"
       style="opacity:1;fill:#000000;fill-opacity:1;stroke:none;stroke-width:2.11666656;stroke-linecap:square;stroke-linejoin:miter;stroke-miterlimit:4;stroke-dasharray:none;stroke-dashoffset:0;stroke-opacity:1">
      <desc
         id="desc894">type:start</desc>
    </circle>
    <circle
       r="18.520834"
       cy="-2326.2754"
       cx="301.6778"
       id="circle900"
       style="opacity:1;fill:#000000;fill-opacity:1;stroke:none;stroke-width:2.11666656;stroke-linecap:square;stroke-linejoin:miter;stroke-miterlimit:4;stroke-dasharray:none;stroke-dashoffset:0;stroke-opacity:1">
      <desc
         id="desc898">type:goal</desc>
    </circle>
    <path
       id="rect8854"
       d="m 1139.4602,-2583.1453 v -1122.0085 l -283.58728,126.9318 v 112.7786 l -63.64936,63.6494 v -218.7613 h 63.64936 l 283.58728,-126.9318 m -347.23664,1206.5268 v -437.5221 l 63.64936,63.6494 -5e-5,327.6358 m 5e-5,-738.5224 v 271.1618 l -63.64936,-63.6494 v -143.863 z m -407.89241,2.9942 60.65573,60.6557 v 143.863 l -60.65573,60.6558 z m 60.65573,690.5469 v -346.3039 l -60.65573,60.6558 v 376.8663 M 855.87292,-3745.8484 V -4040.4 h 283.58728 v 292.9129 m -283.58728,1.6387 h -63.64936 v -93.4682 H 508.63624 v 437.5221 l -60.65573,-60.6558 v -376.8663 H 164.39317 v 1218.97 m 0,111.9988 v 317.1298 h 264.22902 l 19.35832,-349.7423"
       style="display:inline;opacity:1;fill:none;fill-opacity:0.97767861;stroke:#000000;stroke-width:2.11666656;stroke-linecap:square;stroke-linejoin:miter;stroke-miterlimit:4;stroke-dasharray:none;stroke-dashoffset:0;stroke-opacity:1">
      <desc
         id="desc8917">type:obstacle</desc>
    </path>
    <path
       style="fill:none;stroke:#55ddff;stroke-width:16.93333244;stroke-linecap:butt;stroke-linejoin:miter;stroke-miterlimit:4;stroke-dasharray:16.93333291, 16.93333291;stroke-dashoffset:0;stroke-opacity:1"
       d="m 508.63624,-3262.0698 283.58732,283.5874"
       id="path8882">
      <desc
         id="desc8878">type:door;state:open</desc>
    </path>
    <path
       id="path8888"
       d="m 508.63624,-3401.7946 283.58732,283.5874"
       style="fill:none;stroke:#55ddff;stroke-width:16.93333244;stroke-linecap:butt;stroke-linejoin:miter;stroke-miterlimit:4;stroke-dasharray:16.93333291, 16.93333291;stroke-dashoffset:0;stroke-opacity:1">
      <desc
         id="desc8884">type:door;state:open</desc>
    </path>
    <path
       style="fill:none;stroke:#55ddff;stroke-width:16.93333244;stroke-linecap:butt;stroke-linejoin:miter;stroke-miterlimit:4;stroke-dasharray:none;stroke-opacity:1"
       d="m 855.87292,-3054.5579 v 139.7248"
       id="path8896">
      <desc
         id="desc8894">type:door</desc>
    </path>
    <path
       id="path8906"
       d="m 696.42221,-2061.4405 -187.78585,-570.7382 m 787.87784,570.7382 183.3414,-570.7382 -283.5875,91.2185"
       style="opacity:1;fill:none;fill-opacity:0.97767861;stroke:#000000;stroke-width:2.11666656;stroke-linecap:square;stroke-linejoin:miter;stroke-miterlimit:4;stroke-dasharray:none;stroke-dashoffset:0;stroke-opacity:1">
      <desc
         id="desc8919">type:obstacle</desc>
    </path>
    <path
       style="fill:none;fill-opacity:1;stroke:#55ddff;stroke-width:16.93333244;stroke-linecap:butt;stroke-linejoin:miter;stroke-miterlimit:4;stroke-dasharray:none;stroke-opacity:1"
       d="m 508.63624,-2632.1785 283.58732,91.2182"
       id="path8929">
      <desc
         id="desc8927">type:door</desc>
    </path>
    <circle
       r="18.520834"
       cy="-3756.0579"
       cx="994.80536"
       id="circle8937"
       style="opacity:1;fill:#2aff80;fill-opacity:1;stroke:none;stroke-width:2.11666656;stroke-linecap:square;stroke-linejoin:miter;stroke-miterlimit:4;stroke-dasharray:none;stroke-dashoffset:0;stroke-opacity:1">
      <desc
         id="desc8935">type:trigger</desc>
    </circle>
    <circle
       style="opacity:1;fill:#a0892c;fill-opacity:1;stroke:none;stroke-width:2.11666656;stroke-linecap:square;stroke-linejoin:miter;stroke-miterlimit:4;stroke-dasharray:none;stroke-dashoffset:0;stroke-opacity:1"
       id="circle901"
       cx="681.5517"
       cy="-3159.1565"
       r="18.520834">
      <desc
         id="desc899">type:collectible</desc>
    </circle>
    <circle
       r="18.520834"
       cy="-3231.491"
       cx="609.21716"
       id="circle905"
       style="opacity:1;fill:#a0892c;fill-opacity:1;stroke:none;stroke-width:2.11666656;stroke-linecap:square;stroke-linejoin:miter;stroke-miterlimit:4;stroke-dasharray:none;stroke-dashoffset:0;stroke-opacity:1">
      <desc
         id="desc903">type:collectible</desc>
    </circle>
    <circle
       r="18.520834"
       cy="-3088.0376"
       cx="755.70972"
       id="circle909"
       style="opacity:1;fill:#a0892c;fill-opacity:1;stroke:none;stroke-width:2.11666656;stroke-linecap:square;stroke-linejoin:miter;stroke-miterlimit:4;stroke-dasharray:none;stroke-dashoffset:0;stroke-opacity:1">
      <desc
         id="desc907">type:collectible</desc>
    </circle>
    <path
       id="path918"
       d="m 696.42221,-2061.4405 117.1699,104.2978 49.72537,122.9853 9.29018,215.1884 m -73.06952,208.8559 -169.16355,185.1937 -221.40328,98.8433 -243.64043,8.889 -235.875134,-84.6686 -205.419716,-190.5394 -109.05158,-247.9916 -8.4836,-272.1106 96.28404,-262.8961 211.898276,-225.6611 249.710004,-107.2933 m 1132.12103,446.9073 -114.4229,139.4692"
       style="fill:none;fill-rule:evenodd;stroke:#000000;stroke-width:2.11666656;stroke-miterlimit:4;stroke-dasharray:none">
      <desc
         id="desc952">type:obstacle</desc>
    </path>
    <circle
       style="opacity:1;fill:#ffe680;fill-opacity:1;stroke:none;stroke-width:2.11666656;stroke-linecap:square;stroke-linejoin:miter;stroke-miterlimit:4;stroke-dasharray:none;stroke-dashoffset:0;stroke-opacity:1"
       id="circle913"
       cx="33.853806"
       cy="-1907.8788"
       r="18.520834">
      <desc
         id="desc911">type:trigger</desc>
    </circle>
    <circle
       style="opacity:1;fill:#a0892c;fill-opacity:1;stroke:none;stroke-width:2.11666656;stroke-linecap:square;stroke-linejoin:miter;stroke-miterlimit:4;stroke-dasharray:none;stroke-dashoffset:0;stroke-opacity:1"
       id="circle958"
       cx="256.08087"
       cy="-2005.8452"
       r="18.520834">
      <desc
         id="desc956">type:collectible</desc>
    </circle>
    <circle
       r="18.520834"
       cy="-1499.9573"
       cx="200.70262"
       id="circle962"
       style="opacity:1;fill:#a0892c;fill-opacity:1;stroke:none;stroke-width:2.11666656;stroke-linecap:square;stroke-linejoin:miter;stroke-miterlimit:4;stroke-dasharray:none;stroke-dashoffset:0;stroke-opacity:1">
      <desc
         id="desc960">type:collectible</desc>
    </circle>
    <path
       style="fill:none;stroke:#000000;stroke-width:2.11666679;stroke-linecap:butt;stroke-linejoin:miter;stroke-miterlimit:4;stroke-dasharray:none;stroke-opacity:1"
       d="m 382.45474,-1819.2961 -130.03031,-98.0491 -149.90139,63.6206 -19.871088,161.6694 130.030308,98.0492 149.90139,-63.6204 z"
       id="path972">
      <desc
         id="desc970">type:obstacle</desc>
    </path>
    <circle
       style="opacity:1;fill:#a0892c;fill-opacity:1;stroke:none;stroke-width:2.11666656;stroke-linecap:square;stroke-linejoin:miter;stroke-miterlimit:4;stroke-dasharray:none;stroke-dashoffset:0;stroke-opacity:1"
       id="circle976"
       cx="441.67282"
       cy="-1606.2236"
       r="18.520834">
      <desc
         id="desc974">type:collectible</desc>
    </circle>
    <circle
       r="18.520834"
       cy="-1850.1873"
       cx="480.58725"
       id="circle980"
       style="opacity:1;fill:#a0892c;fill-opacity:1;stroke:none;stroke-width:2.11666656;stroke-linecap:square;stroke-linejoin:miter;stroke-miterlimit:4;stroke-dasharray:none;stroke-dashoffset:0;stroke-opacity:1">
      <desc
         id="desc978">type:collectible</desc>
    </circle>
    <path
       style="fill:none;fill-opacity:1;stroke:#ffe680;stroke-width:16.93333244;stroke-linecap:butt;stroke-linejoin:miter;stroke-miterlimit:4;stroke-dasharray:16.93333291, 16.93333291;stroke-dashoffset:0;stroke-opacity:1"
       d="m 1182.0913,-1921.9713 -368.49919,-35.1714"
       id="path984">
      <desc
         id="desc982">type:door;state:open</desc>
    </path>
    <circle
       r="18.520834"
       cy="-1654.6781"
       cx="5.3978996"
       id="circle988"
       style="opacity:1;fill:#55ddff;fill-opacity:1;stroke:none;stroke-width:2.11666656;stroke-linecap:square;stroke-linejoin:miter;stroke-miterlimit:4;stroke-dasharray:none;stroke-dashoffset:0;stroke-opacity:1">
      <desc
         id="desc986">type:trigger</desc>
    </circle>
    <text
       id="text992"
       y="-1689.8204"
       x="-114.6833"
       style="font-style:normal;font-variant:normal;font-weight:normal;font-stretch:normal;font-size:50.79999924px;line-height:1.25;font-family:'Linux Libertine Mono O';-inkscape-font-specification:'Linux Libertine Mono O';letter-spacing:0px;word-spacing:0px;fill:#000000;fill-opacity:1;stroke:none;stroke-width:0.26458332"
       xml:space="preserve"><tspan
         style="stroke-width:0.26458332"
         y="-1689.8204"
         x="-114.6833"
         id="tspan990">Trap!</tspan></text>
    <circle
       style="opacity:1;fill:#02007e;fill-opacity:1;stroke:none;stroke-width:2.11666656;stroke-linecap:square;stroke-linejoin:miter;stroke-miterlimit:4;stroke-dasharray:none;stroke-dashoffset:0;stroke-opacity:1"
       id="circle1000"
       cx="1009.6221"
       cy="-2474.4165"
       r="18.520834">
      <desc
         id="desc998">type:trigger</desc>
    </circle>
    <path
       style="fill:none;fill-opacity:1;stroke:#ffe680;stroke-width:16.93333244;stroke-linecap:butt;stroke-linejoin:miter;stroke-miterlimit:4;stroke-dasharray:none;stroke-dashoffset:0;stroke-opacity:1"
       d="m 1122.6984,-2300.8918 173.8158,239.4513"
       id="path1004">
      <desc
         id="desc1002">type:door</desc>
    </path>
    <circle
       r="18.520834"
       cy="-3944.4438"
       cx="994.80536"
       id="circle1021"
       style="opacity:1;fill:#55ddff;fill-opacity:1;stroke:none;stroke-width:2.11666656;stroke-linecap:square;stroke-linejoin:miter;stroke-miterlimit:4;stroke-dasharray:none;stroke-dashoffset:0;stroke-opacity:1">
      <desc
         id="desc1019">type:trigger</desc>
    </circle>
    <path
       style="fill:none;fill-opacity:1;stroke:#ffe680;stroke-width:16.93333244;stroke-linecap:butt;stroke-linejoin:miter;stroke-miterlimit:4;stroke-dasharray:none;stroke-dashoffset:0;stroke-opacity:1"
       d="M 855.87292,-3839.3166 H 1139.4602"
       id="path1025">
      <desc
         id="desc1023">type:door</desc>
    </path>
    <path
       id="path1029"
       d="m -125.05075,-1754.0618 c -227.03256,187.008 395.43859,217.2642 180.271393,5.3594 -36.272951,-36.832 -140.878458,-50.7388 -180.271393,-5.3594 z"
       style="fill:none;stroke:#000000;stroke-width:4.23333311;stroke-linecap:butt;stroke-linejoin:miter;stroke-miterlimit:4;stroke-dasharray:none;stroke-opacity:1" />
    <path
       id="path1031"
       d="m 847.04663,-3883.1113 c 77.14534,74.7829 242.48967,26.3656 236.13117,-91.4248 -33.3999,-215.3757 -322.70132,-18.0263 -236.13117,91.4248 z"
       style="fill:none;stroke:#000000;stroke-width:4.23333311;stroke-linecap:butt;stroke-linejoin:miter;stroke-miterlimit:4;stroke-dasharray:none;stroke-opacity:1" />
    <path
       id="path1033"
       d="m 832.82716,-3950.2869 c -964.79768,252.4268 -849.945504,1467.7996 -957.87791,2196.2251"
       style="fill:none;stroke:#000000;stroke-width:4.23333311;stroke-linecap:butt;stroke-linejoin:miter;stroke-miterlimit:4;stroke-dasharray:none;stroke-opacity:1" />
    <path
       id="path1235"
       d="m 1182.0913,-1921.9713 -131.1392,89.396 -48.6051,226.9505 -97.04951,257.2736 -206.67443,216.0628 -266.08043,113.4096 -290.25613,5.8868 -279.19991,-106.5046 -232.50758,-223.9968 -121.70749,-287.6776 -5.55066,-313.3884 115.96274,-301.1302 90.08785,-117.8459 108.8412,-100.1429 124.32964,-80.1708 136.55306,-57.9293 85.29782,-18.5681"
       style="fill:none;fill-rule:evenodd;stroke:#000000;stroke-width:2.11666656;stroke-miterlimit:4;stroke-dasharray:none">
      <desc
         id="desc1233">type:obstacle</desc>
    </path>
    <path
       style="fill:none;fill-opacity:1;stroke:#02007e;stroke-width:8.46666622;stroke-linecap:butt;stroke-linejoin:miter;stroke-miterlimit:4;stroke-dasharray:8.46666645, 8.46666645;stroke-dashoffset:0;stroke-opacity:1"
       d="m 1179.3126,-2485.6319 -39.8588,130.0895"
       id="path1239">
      <desc
         id="desc1237">type:door;state:open</desc>
    </path>
    <path
       id="path1263"
       d="M 1139.4602,-2583.1453 996.46845,-2689.3305"
       style="fill:none;fill-opacity:1;stroke:#02007e;stroke-width:8.46666622;stroke-linecap:butt;stroke-linejoin:miter;stroke-miterlimit:4;stroke-dasharray:none;stroke-dashoffset:0;stroke-opacity:1">
      <desc
         id="desc1261">type:door</desc>
    </path>
    <path
       style="fill:none;fill-opacity:1;stroke:#02007e;stroke-width:8.46666622;stroke-linecap:butt;stroke-linejoin:miter;stroke-miterlimit:4;stroke-dasharray:none;stroke-dashoffset:0;stroke-opacity:1"
       d="m 855.87287,-2587.1972 140.59558,-102.1333"
       id="path1267">
      <desc
         id="desc1265">type:door</desc>
    </path>
    <path
       id="path1271"
       d="m 855.71741,-2520.1411 140.05233,-101.7277"
       style="fill:none;fill-opacity:1;stroke:#02007e;stroke-width:8.46666622;stroke-linecap:butt;stroke-linejoin:miter;stroke-miterlimit:4;stroke-dasharray:none;stroke-dashoffset:0;stroke-opacity:1">
      <desc
         id="desc1269">type:door</desc>
    </path>
    <path
       style="fill:none;fill-opacity:1;stroke:#02007e;stroke-width:8.46666622;stroke-linecap:butt;stroke-linejoin:miter;stroke-miterlimit:4;stroke-dasharray:none;stroke-dashoffset:0;stroke-opacity:1"
       d="M 1138.2104,-2516.1405 995.76974,-2621.8688"
       id="path1275">
      <desc
         id="desc1273">type:door</desc>
    </path>
    <path
       id="path1279"
       d="m 1139.4602,-2583.1453 -1.2498,67.0048"
       style="fill:none;fill-opacity:1;stroke:#000000;stroke-width:2.11666656;stroke-linecap:butt;stroke-linejoin:miter;stroke-miterlimit:4;stroke-dasharray:none;stroke-dashoffset:0;stroke-opacity:1">
      <desc
         id="desc1277">type:obstacle</desc>
    </path>
    <path
       style="fill:none;fill-opacity:1;stroke:#000000;stroke-width:2.11666656;stroke-linecap:butt;stroke-linejoin:miter;stroke-miterlimit:4;stroke-dasharray:none;stroke-dashoffset:0;stroke-opacity:1"
       d="m 855.87287,-2587.1972 -0.15546,67.0561"
       id="path1283">
      <desc
         id="desc1281">type:obstacle</desc>
    </path>
    <circle
       r="18.520834"
       cy="-3719.3027"
       cx="299.51376"
       id="circle1415"
       style="opacity:1;fill:#a0892c;fill-opacity:1;stroke:none;stroke-width:2.11666656;stroke-linecap:square;stroke-linejoin:miter;stroke-miterlimit:4;stroke-dasharray:none;stroke-dashoffset:0;stroke-opacity:1">
      <desc
         id="desc1413">type:collectible</desc>
    </circle>
    <circle
       style="opacity:1;fill:#a0892c;fill-opacity:1;stroke:none;stroke-width:2.11666656;stroke-linecap:square;stroke-linejoin:miter;stroke-miterlimit:4;stroke-dasharray:none;stroke-dashoffset:0;stroke-opacity:1"
       id="circle1419"
       cx="299.51376"
       cy="-3631.8735"
       r="18.520834">
      <desc
         id="desc1417">type:collectible</desc>
    </circle>
    <circle
       style="opacity:1;fill:#a0892c;fill-opacity:1;stroke:none;stroke-width:2.11666656;stroke-linecap:square;stroke-linejoin:miter;stroke-miterlimit:4;stroke-dasharray:none;stroke-dashoffset:0;stroke-opacity:1"
       id="circle1423"
       cx="299.51376"
       cy="-3156.54"
       r="18.520834">
      <desc
         id="desc1421">type:collectible</desc>
    </circle>
    <circle
       r="18.520834"
       cy="-1928.0248"
       cx="-444.38727"
       id="circle1427"
       style="opacity:1;fill:#a0892c;fill-opacity:1;stroke:none;stroke-width:2.11666656;stroke-linecap:square;stroke-linejoin:miter;stroke-miterlimit:4;stroke-dasharray:none;stroke-dashoffset:0;stroke-opacity:1">
      <desc
         id="desc1425">type:collectible</desc>
    </circle>
    <circle
       style="opacity:1;fill:#a0892c;fill-opacity:1;stroke:none;stroke-width:2.11666656;stroke-linecap:square;stroke-linejoin:miter;stroke-miterlimit:4;stroke-dasharray:none;stroke-dashoffset:0;stroke-opacity:1"
       id="circle1431"
       cx="-318.6637"
       cy="-1365.2621"
       r="18.520834">
      <desc
         id="desc1429">type:collectible</desc>
    </circle>
    <circle
       r="18.520834"
       cy="-2254.3074"
       cx="1001.4339"
       id="circle1435"
       style="opacity:1;fill:#a0892c;fill-opacity:1;stroke:none;stroke-width:2.11666656;stroke-linecap:square;stroke-linejoin:miter;stroke-miterlimit:4;stroke-dasharray:none;stroke-dashoffset:0;stroke-opacity:1">
      <desc
         id="desc1433">type:collectible</desc>
    </circle>
    <circle
       style="opacity:1;fill:#a0892c;fill-opacity:1;stroke:none;stroke-width:2.11666656;stroke-linecap:square;stroke-linejoin:miter;stroke-miterlimit:4;stroke-dasharray:none;stroke-dashoffset:0;stroke-opacity:1"
       id="circle1439"
       cx="947.55237"
       cy="-1700.5249"
       r="18.520834">
      <desc
         id="desc1437">type:collectible</desc>
    </circle>
    <circle
       r="18.520834"
       cy="-2559.636"
       cx="166.27011"
       id="circle1443"
       style="opacity:1;fill:#a0892c;fill-opacity:1;stroke:none;stroke-width:2.11666656;stroke-linecap:square;stroke-linejoin:miter;stroke-miterlimit:4;stroke-dasharray:none;stroke-dashoffset:0;stroke-opacity:1">
      <desc
         id="desc1441">type:collectible</desc>
    </circle>
    <circle
       style="opacity:1;fill:#a0892c;fill-opacity:1;stroke:none;stroke-width:2.11666656;stroke-linecap:square;stroke-linejoin:miter;stroke-miterlimit:4;stroke-dasharray:none;stroke-dashoffset:0;stroke-opacity:1"
       id="circle1447"
       cx="277.02661"
       cy="-2661.4124"
       r="18.520834">
      <desc
         id="desc1445">type:collectible</desc>
    </circle>
    <circle
       style="opacity:1;fill:#a0892c;fill-opacity:1;stroke:none;stroke-width:2.11666656;stroke-linecap:square;stroke-linejoin:miter;stroke-miterlimit:4;stroke-dasharray:none;stroke-dashoffset:0;stroke-opacity:1"
       id="circle1455"
       cx="333.90152"
       cy="-2793.1228"
       r="18.520834">
      <desc
         id="desc1453">type:collectible</desc>
    </circle>
    <path
       id="path1457"
       d="m 996.46847,-2689.3305 -0.69871,67.4617"
       style="fill:none;stroke:#000000;stroke-width:2.11666656;stroke-linecap:butt;stroke-linejoin:miter;stroke-miterlimit:4;stroke-dasharray:none;stroke-opacity:1">
      <desc
         id="desc1459">type:obstacle</desc>
    </path>
  </g>
</svg>
